<svg xmlns="http://www.w3.org/2000/svg" version="1.1" width="175px" height="242px" style="shape-rendering:geometricPrecision; text-rendering:geometricPrecision; image-rendering:optimizeQuality; fill-rule:evenodd; clip-rule:evenodd" xmlns:xlink="http://www.w3.org/1999/xlink">
<g><path style="opacity:1" fill="#21d1ea" d="M 20.5,4.5 C 25.9302,4.161 31.2636,4.661 36.5,6C 78.7823,27.141 120.782,48.8077 162.5,71C 173.897,80.7826 175.397,91.9492 167,104.5C 159.073,112.439 149.907,114.273 139.5,110C 97.5,88.3333 55.5,66.6667 13.5,45C 3.42109,35.387 1.92109,24.5536 9,12.5C 12.4821,9.16083 16.3155,6.49416 20.5,4.5 Z"/></g>
<g><path style="opacity:1" fill="#1fc6d3" d="M 22.5,66.5 C 26.9362,66.2101 31.2695,66.7101 35.5,68C 78.4802,89.4895 121.147,111.489 163.5,134C 175.49,145.959 175.49,157.959 163.5,170C 155.589,175.173 147.255,175.84 138.5,172C 97.1667,150.667 55.8333,129.333 14.5,108C 1.16667,95.3333 1.16667,82.6667 14.5,70C 17.1579,68.522 19.8245,67.3554 22.5,66.5 Z"/></g>
<g><path style="opacity:1" fill="#1bb2b6" d="M 23.5,128.5 C 28.3329,128.375 32.9996,129.208 37.5,131C 79.9905,152.745 122.324,174.745 164.5,197C 174.089,207.132 174.922,217.965 167,229.5C 159.347,236.535 150.514,238.369 140.5,235C 97.5198,213.511 54.8532,191.511 12.5,169C 1.52934,156.68 1.86267,144.68 13.5,133C 16.8153,131.17 20.1486,129.67 23.5,128.5 Z"/></g>
</svg>
